<svg width="367" height="270" viewBox="0 0 367 270" fill="none" xmlns="http://www.w3.org/2000/svg">
<g filter="url(#filter0_d)">
<rect x="20" y="12" width="327" height="230" rx="20" fill="#54D1ED"/>
<rect x="20" y="12" width="327" height="230" rx="20" fill="url(#paint0_linear)" fill-opacity="0.4" style="mix-blend-mode:multiply"/>
<path d="M58.6855 203.037C58.6855 204.736 58.0645 206.137 56.8223 207.238C55.5801 208.34 53.7871 209.02 51.4434 209.277V213.092H49.1055V209.383C46.1992 209.336 43.8145 208.891 41.9512 208.047V204.338C42.959 204.83 44.1367 205.246 45.4844 205.586C46.832 205.914 48.0391 206.084 49.1055 206.096V199.521L47.6289 198.977C45.707 198.238 44.3008 197.359 43.4102 196.34C42.5312 195.309 42.0918 194.037 42.0918 192.525C42.0918 190.908 42.7188 189.578 43.9727 188.535C45.2383 187.492 46.9492 186.859 49.1055 186.637V183.684H51.4434V186.584C53.8223 186.666 56.0781 187.146 58.2109 188.025L56.9277 191.242C55.0879 190.516 53.2598 190.082 51.4434 189.941V196.34L52.7793 196.85C55.0059 197.705 56.5469 198.607 57.4023 199.557C58.2578 200.506 58.6855 201.666 58.6855 203.037ZM54.5371 203.301C54.5371 202.621 54.2969 202.064 53.8164 201.631C53.3477 201.186 52.5566 200.758 51.4434 200.348V205.955C53.5059 205.639 54.5371 204.754 54.5371 203.301ZM46.2227 192.49C46.2227 193.158 46.4277 193.715 46.8379 194.16C47.2598 194.605 48.0156 195.045 49.1055 195.479V190.012C48.168 190.152 47.4531 190.439 46.9609 190.873C46.4688 191.307 46.2227 191.846 46.2227 192.49ZM74.2773 211H70.1465V194.406C70.1465 192.426 70.1934 190.855 70.2871 189.695C70.0176 189.977 69.6836 190.287 69.2852 190.627C68.8984 190.967 67.5859 192.045 65.3477 193.861L63.2734 191.242L70.832 185.301H74.2773V211ZM83.4707 208.803C83.4707 207.947 83.6934 207.291 84.1387 206.834C84.584 206.377 85.2285 206.148 86.0723 206.148C86.9277 206.148 87.5781 206.389 88.0234 206.869C88.4688 207.338 88.6914 207.982 88.6914 208.803C88.6914 209.635 88.4629 210.297 88.0059 210.789C87.5605 211.27 86.916 211.51 86.0723 211.51C85.2285 211.51 84.584 211.27 84.1387 210.789C83.6934 210.309 83.4707 209.646 83.4707 208.803ZM101.348 194.951C103.938 194.951 105.988 195.637 107.5 197.008C109.012 198.379 109.768 200.248 109.768 202.615C109.768 205.357 108.906 207.502 107.184 209.049C105.473 210.584 103.035 211.352 99.8711 211.352C97 211.352 94.7441 210.889 93.1035 209.963V206.219C94.0527 206.758 95.1426 207.174 96.373 207.467C97.6035 207.76 98.7461 207.906 99.8008 207.906C101.664 207.906 103.082 207.49 104.055 206.658C105.027 205.826 105.514 204.607 105.514 203.002C105.514 199.932 103.557 198.396 99.6426 198.396C99.0918 198.396 98.4121 198.455 97.6035 198.572C96.7949 198.678 96.0859 198.801 95.4766 198.941L93.6309 197.852L94.6152 185.301H107.975V188.975H98.2539L97.6738 195.338C98.084 195.268 98.582 195.186 99.168 195.092C99.7656 194.998 100.492 194.951 101.348 194.951ZM116.113 211L126.273 188.975H112.914V185.336H130.686V188.219L120.578 211H116.113ZM151.182 198.15C151.182 202.615 150.461 205.932 149.02 208.1C147.59 210.268 145.398 211.352 142.445 211.352C139.586 211.352 137.418 210.232 135.941 207.994C134.465 205.756 133.727 202.475 133.727 198.15C133.727 193.615 134.441 190.275 135.871 188.131C137.312 185.975 139.504 184.896 142.445 184.896C145.316 184.896 147.49 186.021 148.967 188.271C150.443 190.521 151.182 193.814 151.182 198.15ZM137.91 198.15C137.91 201.654 138.268 204.156 138.982 205.656C139.709 207.156 140.863 207.906 142.445 207.906C144.027 207.906 145.182 207.145 145.908 205.621C146.646 204.098 147.016 201.607 147.016 198.15C147.016 194.705 146.646 192.215 145.908 190.68C145.182 189.133 144.027 188.359 142.445 188.359C140.863 188.359 139.709 189.115 138.982 190.627C138.268 192.139 137.91 194.646 137.91 198.15ZM155.084 208.803C155.084 207.947 155.307 207.291 155.752 206.834C156.197 206.377 156.842 206.148 157.686 206.148C158.541 206.148 159.191 206.389 159.637 206.869C160.082 207.338 160.305 207.982 160.305 208.803C160.305 209.635 160.076 210.297 159.619 210.789C159.174 211.27 158.529 211.51 157.686 211.51C156.842 211.51 156.197 211.27 155.752 210.789C155.307 210.309 155.084 209.646 155.084 208.803ZM181.662 198.15C181.662 202.615 180.941 205.932 179.5 208.1C178.07 210.268 175.879 211.352 172.926 211.352C170.066 211.352 167.898 210.232 166.422 207.994C164.945 205.756 164.207 202.475 164.207 198.15C164.207 193.615 164.922 190.275 166.352 188.131C167.793 185.975 169.984 184.896 172.926 184.896C175.797 184.896 177.971 186.021 179.447 188.271C180.924 190.521 181.662 193.814 181.662 198.15ZM168.391 198.15C168.391 201.654 168.748 204.156 169.463 205.656C170.189 207.156 171.344 207.906 172.926 207.906C174.508 207.906 175.662 207.145 176.389 205.621C177.127 204.098 177.496 201.607 177.496 198.15C177.496 194.705 177.127 192.215 176.389 190.68C175.662 189.133 174.508 188.359 172.926 188.359C171.344 188.359 170.189 189.115 169.463 190.627C168.748 192.139 168.391 194.646 168.391 198.15ZM202.229 198.15C202.229 202.615 201.508 205.932 200.066 208.1C198.637 210.268 196.445 211.352 193.492 211.352C190.633 211.352 188.465 210.232 186.988 207.994C185.512 205.756 184.773 202.475 184.773 198.15C184.773 193.615 185.488 190.275 186.918 188.131C188.359 185.975 190.551 184.896 193.492 184.896C196.363 184.896 198.537 186.021 200.014 188.271C201.49 190.521 202.229 193.814 202.229 198.15ZM188.957 198.15C188.957 201.654 189.314 204.156 190.029 205.656C190.756 207.156 191.91 207.906 193.492 207.906C195.074 207.906 196.229 207.145 196.955 205.621C197.693 204.098 198.062 201.607 198.062 198.15C198.062 194.705 197.693 192.215 196.955 190.68C196.229 189.133 195.074 188.359 193.492 188.359C191.91 188.359 190.756 189.115 190.029 190.627C189.314 192.139 188.957 194.646 188.957 198.15ZM222.795 198.15C222.795 202.615 222.074 205.932 220.633 208.1C219.203 210.268 217.012 211.352 214.059 211.352C211.199 211.352 209.031 210.232 207.555 207.994C206.078 205.756 205.34 202.475 205.34 198.15C205.34 193.615 206.055 190.275 207.484 188.131C208.926 185.975 211.117 184.896 214.059 184.896C216.93 184.896 219.104 186.021 220.58 188.271C222.057 190.521 222.795 193.814 222.795 198.15ZM209.523 198.15C209.523 201.654 209.881 204.156 210.596 205.656C211.322 207.156 212.477 207.906 214.059 207.906C215.641 207.906 216.795 207.145 217.521 205.621C218.26 204.098 218.629 201.607 218.629 198.15C218.629 194.705 218.26 192.215 217.521 190.68C216.795 189.133 215.641 188.359 214.059 188.359C212.477 188.359 211.322 189.115 210.596 190.627C209.881 192.139 209.523 194.646 209.523 198.15Z" fill="white"/>
<path d="M53.9648 61H46.6963V48.1504H53.9648V49.9258H48.7969V53.4238H53.6396V55.1816H48.7969V59.2158H53.9648V61ZM61.4619 51.1035C61.8779 51.1035 62.2207 51.1328 62.4902 51.1914L62.2881 53.1162C61.9951 53.0459 61.6904 53.0107 61.374 53.0107C60.5479 53.0107 59.877 53.2803 59.3613 53.8193C58.8516 54.3584 58.5967 55.0586 58.5967 55.9199V61H56.5312V51.2793H58.1484L58.4209 52.9932H58.5264C58.8486 52.4131 59.2676 51.9531 59.7832 51.6133C60.3047 51.2734 60.8643 51.1035 61.4619 51.1035ZM68.5459 61.1758C67.0342 61.1758 65.8506 60.7363 64.9951 59.8574C64.1455 58.9727 63.7207 57.7568 63.7207 56.21C63.7207 54.6221 64.1162 53.374 64.9072 52.4658C65.6982 51.5576 66.7852 51.1035 68.168 51.1035C69.4512 51.1035 70.4648 51.4932 71.209 52.2725C71.9531 53.0518 72.3252 54.124 72.3252 55.4893V56.6055H65.8477C65.877 57.5488 66.1318 58.2754 66.6123 58.7852C67.0928 59.2891 67.7695 59.541 68.6426 59.541C69.2168 59.541 69.75 59.4883 70.2422 59.3828C70.7402 59.2715 71.2734 59.0898 71.8418 58.8379V60.5166C71.3379 60.7568 70.8281 60.9268 70.3125 61.0264C69.7969 61.126 69.208 61.1758 68.5459 61.1758ZM68.168 52.668C67.5117 52.668 66.9844 52.876 66.5859 53.292C66.1934 53.708 65.959 54.3145 65.8828 55.1113H70.2949C70.2832 54.3086 70.0898 53.7021 69.7148 53.292C69.3398 52.876 68.8242 52.668 68.168 52.668ZM81.2021 58.2314C81.2021 59.1807 80.8564 59.9102 80.165 60.4199C79.4736 60.9238 78.4834 61.1758 77.1943 61.1758C75.8994 61.1758 74.8594 60.9795 74.0742 60.5869V58.8027C75.2168 59.3301 76.2803 59.5938 77.2646 59.5938C78.5361 59.5938 79.1719 59.21 79.1719 58.4424C79.1719 58.1963 79.1016 57.9912 78.9609 57.8271C78.8203 57.6631 78.5889 57.4932 78.2666 57.3174C77.9443 57.1416 77.4961 56.9424 76.9219 56.7197C75.8027 56.2861 75.0439 55.8525 74.6455 55.4189C74.2529 54.9854 74.0566 54.4229 74.0566 53.7314C74.0566 52.8994 74.3906 52.2549 75.0586 51.7979C75.7324 51.335 76.6465 51.1035 77.8008 51.1035C78.9434 51.1035 80.0244 51.335 81.0439 51.7979L80.376 53.3535C79.3271 52.9199 78.4453 52.7031 77.7305 52.7031C76.6406 52.7031 76.0957 53.0137 76.0957 53.6348C76.0957 53.9395 76.2363 54.1973 76.5176 54.4082C76.8047 54.6191 77.4258 54.9092 78.3809 55.2783C79.1836 55.5889 79.7666 55.873 80.1299 56.1309C80.4932 56.3887 80.7627 56.6875 80.9385 57.0273C81.1143 57.3613 81.2021 57.7627 81.2021 58.2314ZM50.7217 86.1758C49.21 86.1758 48.0264 85.7363 47.1709 84.8574C46.3213 83.9727 45.8965 82.7568 45.8965 81.21C45.8965 79.6221 46.292 78.374 47.083 77.4658C47.874 76.5576 48.9609 76.1035 50.3438 76.1035C51.627 76.1035 52.6406 76.4932 53.3848 77.2725C54.1289 78.0518 54.501 79.124 54.501 80.4893V81.6055H48.0234C48.0527 82.5488 48.3076 83.2754 48.7881 83.7852C49.2686 84.2891 49.9453 84.541 50.8184 84.541C51.3926 84.541 51.9258 84.4883 52.418 84.3828C52.916 84.2715 53.4492 84.0898 54.0176 83.8379V85.5166C53.5137 85.7568 53.0039 85.9268 52.4883 86.0264C51.9727 86.126 51.3838 86.1758 50.7217 86.1758ZM50.3438 77.668C49.6875 77.668 49.1602 77.876 48.7617 78.292C48.3691 78.708 48.1348 79.3145 48.0586 80.1113H52.4707C52.459 79.3086 52.2656 78.7021 51.8906 78.292C51.5156 77.876 51 77.668 50.3438 77.668ZM63.3779 83.2314C63.3779 84.1807 63.0322 84.9102 62.3408 85.4199C61.6494 85.9238 60.6592 86.1758 59.3701 86.1758C58.0752 86.1758 57.0352 85.9795 56.25 85.5869V83.8027C57.3926 84.3301 58.4561 84.5938 59.4404 84.5938C60.7119 84.5938 61.3477 84.21 61.3477 83.4424C61.3477 83.1963 61.2773 82.9912 61.1367 82.8271C60.9961 82.6631 60.7646 82.4932 60.4424 82.3174C60.1201 82.1416 59.6719 81.9424 59.0977 81.7197C57.9785 81.2861 57.2197 80.8525 56.8213 80.4189C56.4287 79.9854 56.2324 79.4229 56.2324 78.7314C56.2324 77.8994 56.5664 77.2549 57.2344 76.7979C57.9082 76.335 58.8223 76.1035 59.9766 76.1035C61.1191 76.1035 62.2002 76.335 63.2197 76.7979L62.5518 78.3535C61.5029 77.9199 60.6211 77.7031 59.9062 77.7031C58.8164 77.7031 58.2715 78.0137 58.2715 78.6348C58.2715 78.9395 58.4121 79.1973 58.6934 79.4082C58.9805 79.6191 59.6016 79.9092 60.5566 80.2783C61.3594 80.5889 61.9424 80.873 62.3057 81.1309C62.6689 81.3887 62.9385 81.6875 63.1143 82.0273C63.29 82.3613 63.3779 82.7627 63.3779 83.2314ZM69.2402 84.5059C69.7441 84.5059 70.248 84.4268 70.752 84.2686V85.8242C70.5234 85.9238 70.2275 86.0059 69.8643 86.0703C69.5068 86.1406 69.1348 86.1758 68.748 86.1758C66.791 86.1758 65.8125 85.1445 65.8125 83.082V77.8438H64.4854V76.9297L65.9092 76.1738L66.6123 74.1172H67.8867V76.2793H70.6553V77.8438H67.8867V83.0469C67.8867 83.5449 68.0098 83.9141 68.2559 84.1543C68.5078 84.3887 68.8359 84.5059 69.2402 84.5059ZM77.6338 76.1035C78.0498 76.1035 78.3926 76.1328 78.6621 76.1914L78.46 78.1162C78.167 78.0459 77.8623 78.0107 77.5459 78.0107C76.7197 78.0107 76.0488 78.2803 75.5332 78.8193C75.0234 79.3584 74.7686 80.0586 74.7686 80.9199V86H72.7031V76.2793H74.3203L74.5928 77.9932H74.6982C75.0205 77.4131 75.4395 76.9531 75.9551 76.6133C76.4766 76.2734 77.0361 76.1035 77.6338 76.1035ZM86.5547 86L86.1416 84.6465H86.0713C85.6025 85.2383 85.1309 85.6426 84.6562 85.8594C84.1816 86.0703 83.5723 86.1758 82.8281 86.1758C81.873 86.1758 81.126 85.918 80.5869 85.4023C80.0537 84.8867 79.7871 84.1572 79.7871 83.2139C79.7871 82.2119 80.1592 81.4561 80.9033 80.9463C81.6475 80.4365 82.7812 80.1582 84.3047 80.1113L85.9834 80.0586V79.54C85.9834 78.9189 85.8369 78.4561 85.5439 78.1514C85.2568 77.8408 84.8086 77.6855 84.1992 77.6855C83.7012 77.6855 83.2236 77.7588 82.7666 77.9053C82.3096 78.0518 81.8701 78.2246 81.4482 78.4238L80.7803 76.9473C81.3076 76.6719 81.8848 76.4639 82.5117 76.3232C83.1387 76.1768 83.7305 76.1035 84.2871 76.1035C85.5234 76.1035 86.4551 76.373 87.082 76.9121C87.7148 77.4512 88.0312 78.2979 88.0312 79.4521V86H86.5547ZM83.4785 84.5938C84.2285 84.5938 84.8291 84.3857 85.2803 83.9697C85.7373 83.5479 85.9658 82.959 85.9658 82.2031V81.3594L84.7178 81.4121C83.7451 81.4473 83.0361 81.6113 82.5908 81.9043C82.1514 82.1914 81.9316 82.6338 81.9316 83.2314C81.9316 83.665 82.0605 84.002 82.3184 84.2422C82.5762 84.4766 82.9629 84.5938 83.4785 84.5938ZM94.5352 84.5059C95.0391 84.5059 95.543 84.4268 96.0469 84.2686V85.8242C95.8184 85.9238 95.5225 86.0059 95.1592 86.0703C94.8018 86.1406 94.4297 86.1758 94.043 86.1758C92.0859 86.1758 91.1074 85.1445 91.1074 83.082V77.8438H89.7803V76.9297L91.2041 76.1738L91.9072 74.1172H93.1816V76.2793H95.9502V77.8438H93.1816V83.0469C93.1816 83.5449 93.3047 83.9141 93.5508 84.1543C93.8027 84.3887 94.1309 84.5059 94.5352 84.5059ZM102.243 86.1758C100.731 86.1758 99.5479 85.7363 98.6924 84.8574C97.8428 83.9727 97.418 82.7568 97.418 81.21C97.418 79.6221 97.8135 78.374 98.6045 77.4658C99.3955 76.5576 100.482 76.1035 101.865 76.1035C103.148 76.1035 104.162 76.4932 104.906 77.2725C105.65 78.0518 106.022 79.124 106.022 80.4893V81.6055H99.5449C99.5742 82.5488 99.8291 83.2754 100.31 83.7852C100.79 84.2891 101.467 84.541 102.34 84.541C102.914 84.541 103.447 84.4883 103.939 84.3828C104.438 84.2715 104.971 84.0898 105.539 83.8379V85.5166C105.035 85.7568 104.525 85.9268 104.01 86.0264C103.494 86.126 102.905 86.1758 102.243 86.1758ZM101.865 77.668C101.209 77.668 100.682 77.876 100.283 78.292C99.8906 78.708 99.6562 79.3145 99.5801 80.1113H103.992C103.98 79.3086 103.787 78.7021 103.412 78.292C103.037 77.876 102.521 77.668 101.865 77.668ZM116.578 76.2793V77.4131L114.917 77.7207C115.069 77.9258 115.195 78.1777 115.295 78.4766C115.395 78.7754 115.444 79.0918 115.444 79.4258C115.444 80.4277 115.099 81.2158 114.407 81.79C113.716 82.3643 112.764 82.6514 111.551 82.6514C111.24 82.6514 110.959 82.6279 110.707 82.5811C110.262 82.8564 110.039 83.1787 110.039 83.5479C110.039 83.7705 110.142 83.9375 110.347 84.0488C110.558 84.1602 110.941 84.2158 111.498 84.2158H113.194C114.267 84.2158 115.081 84.4443 115.638 84.9014C116.194 85.3584 116.473 86.0176 116.473 86.8789C116.473 87.9805 116.019 88.8301 115.11 89.4277C114.202 90.0254 112.89 90.3242 111.173 90.3242C109.849 90.3242 108.838 90.0898 108.141 89.6211C107.443 89.1523 107.095 88.4844 107.095 87.6172C107.095 87.0195 107.282 86.5156 107.657 86.1055C108.038 85.7012 108.568 85.4199 109.248 85.2617C108.973 85.1445 108.744 84.957 108.562 84.6992C108.387 84.4355 108.299 84.1602 108.299 83.873C108.299 83.5098 108.401 83.2021 108.606 82.9502C108.812 82.6982 109.116 82.4492 109.521 82.2031C109.017 81.9863 108.606 81.6348 108.29 81.1484C107.979 80.6562 107.824 80.082 107.824 79.4258C107.824 78.3711 108.155 77.5537 108.817 76.9736C109.485 76.3936 110.435 76.1035 111.665 76.1035C111.94 76.1035 112.228 76.124 112.526 76.165C112.831 76.2002 113.06 76.2383 113.212 76.2793H116.578ZM108.94 87.5117C108.94 87.957 109.14 88.2998 109.538 88.54C109.942 88.7803 110.508 88.9004 111.234 88.9004C112.359 88.9004 113.197 88.7393 113.748 88.417C114.299 88.0947 114.574 87.667 114.574 87.1338C114.574 86.7119 114.422 86.4102 114.117 86.2285C113.818 86.0527 113.259 85.9648 112.438 85.9648H110.874C110.282 85.9648 109.811 86.1025 109.459 86.3779C109.113 86.6592 108.94 87.0371 108.94 87.5117ZM109.828 79.4258C109.828 80.0352 109.983 80.5039 110.294 80.832C110.61 81.1602 111.062 81.3242 111.647 81.3242C112.843 81.3242 113.44 80.6855 113.44 79.4082C113.44 78.7754 113.291 78.2891 112.992 77.9492C112.699 77.6035 112.251 77.4307 111.647 77.4307C111.05 77.4307 110.596 77.6006 110.285 77.9404C109.98 78.2803 109.828 78.7754 109.828 79.4258ZM124.471 86L124.058 84.6465H123.987C123.519 85.2383 123.047 85.6426 122.572 85.8594C122.098 86.0703 121.488 86.1758 120.744 86.1758C119.789 86.1758 119.042 85.918 118.503 85.4023C117.97 84.8867 117.703 84.1572 117.703 83.2139C117.703 82.2119 118.075 81.4561 118.819 80.9463C119.563 80.4365 120.697 80.1582 122.221 80.1113L123.899 80.0586V79.54C123.899 78.9189 123.753 78.4561 123.46 78.1514C123.173 77.8408 122.725 77.6855 122.115 77.6855C121.617 77.6855 121.14 77.7588 120.683 77.9053C120.226 78.0518 119.786 78.2246 119.364 78.4238L118.696 76.9473C119.224 76.6719 119.801 76.4639 120.428 76.3232C121.055 76.1768 121.646 76.1035 122.203 76.1035C123.439 76.1035 124.371 76.373 124.998 76.9121C125.631 77.4512 125.947 78.2979 125.947 79.4521V86H124.471ZM121.395 84.5938C122.145 84.5938 122.745 84.3857 123.196 83.9697C123.653 83.5479 123.882 82.959 123.882 82.2031V81.3594L122.634 81.4121C121.661 81.4473 120.952 81.6113 120.507 81.9043C120.067 82.1914 119.848 82.6338 119.848 83.2314C119.848 83.665 119.977 84.002 120.234 84.2422C120.492 84.4766 120.879 84.5938 121.395 84.5938Z" fill="white"/>
<path d="M44.7715 168H43.1377V159.407H40.1982V158.006H47.7109V159.407H44.7715V168ZM54.2702 168L54.0446 167.009H53.9625C53.7392 167.36 53.4202 167.635 53.0055 167.836C52.5954 168.036 52.126 168.137 51.5973 168.137C50.6813 168.137 49.9977 167.909 49.5465 167.453C49.0954 166.997 48.8698 166.307 48.8698 165.382V160.439H50.4899V165.102C50.4899 165.68 50.6084 166.116 50.8454 166.407C51.0823 166.694 51.4538 166.838 51.9596 166.838C52.6341 166.838 53.1286 166.637 53.443 166.236C53.762 165.831 53.9215 165.154 53.9215 164.206V160.439H55.5348V168H54.2702ZM66.2607 165.847C66.2607 166.585 65.9918 167.152 65.454 167.549C64.9163 167.941 64.1461 168.137 63.1435 168.137C62.1363 168.137 61.3274 167.984 60.7167 167.679V166.291C61.6054 166.701 62.4325 166.906 63.1982 166.906C64.1871 166.906 64.6816 166.608 64.6816 166.011C64.6816 165.819 64.6269 165.66 64.5175 165.532C64.4081 165.405 64.2281 165.272 63.9775 165.136C63.7268 164.999 63.3782 164.844 62.9316 164.671C62.0611 164.334 61.471 163.996 61.1611 163.659C60.8557 163.322 60.703 162.884 60.703 162.347C60.703 161.7 60.9628 161.198 61.4823 160.843C62.0064 160.483 62.7174 160.303 63.6152 160.303C64.5038 160.303 65.3446 160.483 66.1376 160.843L65.6181 162.053C64.8023 161.715 64.1165 161.547 63.5605 161.547C62.7128 161.547 62.289 161.788 62.289 162.271C62.289 162.508 62.3984 162.709 62.6171 162.873C62.8404 163.037 63.3235 163.263 64.0663 163.55C64.6907 163.791 65.1441 164.012 65.4267 164.213C65.7092 164.413 65.9189 164.646 66.0556 164.91C66.1923 165.17 66.2607 165.482 66.2607 165.847ZM72.5943 168L72.273 166.947H72.2183C71.8537 167.408 71.4869 167.722 71.1177 167.891C70.7486 168.055 70.2746 168.137 69.6959 168.137C68.953 168.137 68.372 167.936 67.9527 167.535C67.538 167.134 67.3306 166.567 67.3306 165.833C67.3306 165.054 67.62 164.466 68.1988 164.069C68.7776 163.673 69.6594 163.456 70.8443 163.42L72.15 163.379V162.976C72.15 162.493 72.036 162.132 71.8082 161.896C71.5849 161.654 71.2362 161.533 70.7623 161.533C70.3749 161.533 70.0035 161.59 69.648 161.704C69.2925 161.818 68.9507 161.952 68.6226 162.107L68.1031 160.959C68.5132 160.745 68.9621 160.583 69.4498 160.474C69.9374 160.36 70.3977 160.303 70.8306 160.303C71.7922 160.303 72.5168 160.512 73.0045 160.932C73.4966 161.351 73.7427 162.009 73.7427 162.907V168H72.5943ZM70.2017 166.906C70.7851 166.906 71.2522 166.744 71.6031 166.421C71.9586 166.093 72.1363 165.635 72.1363 165.047V164.391L71.1656 164.432C70.4091 164.459 69.8576 164.587 69.5113 164.814C69.1695 165.038 68.9986 165.382 68.9986 165.847C68.9986 166.184 69.0989 166.446 69.2994 166.633C69.4999 166.815 69.8007 166.906 70.2017 166.906ZM77.4514 168H75.8449V157.363H77.4514V168ZM82.1649 168.137C81.2215 168.137 80.4855 167.795 79.9569 167.111C79.4282 166.428 79.1639 165.468 79.1639 164.233C79.1639 162.994 79.4305 162.03 79.9637 161.342C80.5015 160.649 81.2443 160.303 82.1922 160.303C83.1857 160.303 83.9422 160.67 84.4618 161.403H84.5438C84.4663 160.861 84.4276 160.433 84.4276 160.118V157.363H86.0409V168H84.783L84.5028 167.009H84.4276C83.9126 167.761 83.1584 168.137 82.1649 168.137ZM82.5955 166.838C83.2564 166.838 83.7371 166.653 84.0379 166.284C84.3387 165.91 84.4937 165.307 84.5028 164.473V164.247C84.5028 163.295 84.3478 162.618 84.0379 162.217C83.728 161.816 83.2427 161.615 82.5819 161.615C82.0168 161.615 81.5815 161.845 81.2762 162.306C80.9709 162.761 80.8182 163.413 80.8182 164.261C80.8182 165.099 80.9663 165.74 81.2625 166.182C81.5588 166.619 82.0031 166.838 82.5955 166.838ZM94.9038 164.206C94.9038 165.441 94.5871 166.405 93.9536 167.098C93.3201 167.79 92.4383 168.137 91.3081 168.137C90.6017 168.137 89.9774 167.977 89.435 167.658C88.8927 167.339 88.4757 166.881 88.1841 166.284C87.8924 165.687 87.7466 164.994 87.7466 164.206C87.7466 162.98 88.061 162.023 88.6899 161.335C89.3188 160.647 90.2052 160.303 91.3491 160.303C92.4429 160.303 93.3087 160.656 93.9468 161.362C94.5848 162.064 94.9038 163.012 94.9038 164.206ZM89.4009 164.206C89.4009 165.951 90.0457 166.824 91.3354 166.824C92.6115 166.824 93.2495 165.951 93.2495 164.206C93.2495 162.479 92.6069 161.615 91.3218 161.615C90.6473 161.615 90.1574 161.839 89.852 162.285C89.5513 162.732 89.4009 163.372 89.4009 164.206Z" fill="white"/>
</g>
<defs>
<filter id="filter0_d" x="0" y="0" width="367" height="270" filterUnits="userSpaceOnUse" color-interpolation-filters="sRGB">
<feFlood flood-opacity="0" result="BackgroundImageFix"/>
<feColorMatrix in="SourceAlpha" type="matrix" values="0 0 0 0 0 0 0 0 0 0 0 0 0 0 0 0 0 0 127 0"/>
<feOffset dy="8"/>
<feGaussianBlur stdDeviation="10"/>
<feColorMatrix type="matrix" values="0 0 0 0 0.771758 0 0 0 0 0.651354 0 0 0 0 0.925 0 0 0 0.05 0"/>
<feBlend mode="normal" in2="BackgroundImageFix" result="effect1_dropShadow"/>
<feBlend mode="normal" in="SourceGraphic" in2="effect1_dropShadow" result="shape"/>
</filter>
<linearGradient id="paint0_linear" x1="183.5" y1="12" x2="183.5" y2="242" gradientUnits="userSpaceOnUse">
<stop stop-color="#2C52D8" stop-opacity="0"/>
<stop offset="1" stop-color="#2C52D8"/>
</linearGradient>
</defs>
</svg>

