<svg width="367" height="142" viewBox="0 0 367 142" fill="none" xmlns="http://www.w3.org/2000/svg">
<g filter="url(#filter0_d)">
<rect x="20" y="12" width="327" height="102" rx="20" fill="white"/>
<path d="M42.374 48V38.0059H43.5361V48H42.374ZM51.2402 48V43.1533C51.2402 42.5426 51.1012 42.0869 50.8232 41.7861C50.5452 41.4854 50.11 41.335 49.5176 41.335C48.7337 41.335 48.1595 41.5469 47.7949 41.9707C47.4303 42.3945 47.248 43.0941 47.248 44.0693V48H46.1133V40.5078H47.0361L47.2207 41.5332H47.2754C47.5078 41.1641 47.8337 40.8792 48.2529 40.6787C48.6722 40.4736 49.1393 40.3711 49.6543 40.3711C50.5566 40.3711 51.2357 40.5898 51.6914 41.0273C52.1471 41.4603 52.375 42.1553 52.375 43.1123V48H51.2402ZM56.3535 48L53.5098 40.5078H54.7266L56.3398 44.9512C56.7044 45.9902 56.9186 46.6647 56.9824 46.9746H57.0371C57.0872 46.7331 57.2445 46.234 57.5088 45.4775C57.7777 44.7165 58.377 43.0599 59.3066 40.5078H60.5234L57.6797 48H56.3535ZM64.8916 48.1367C63.7842 48.1367 62.9092 47.7995 62.2666 47.125C61.6286 46.4505 61.3096 45.514 61.3096 44.3154C61.3096 43.1077 61.6058 42.1484 62.1982 41.4375C62.7952 40.7266 63.5951 40.3711 64.5977 40.3711C65.5365 40.3711 66.2793 40.681 66.8262 41.3008C67.373 41.916 67.6465 42.7295 67.6465 43.7412V44.459H62.4854C62.5081 45.3385 62.7292 46.0062 63.1484 46.4619C63.5723 46.9176 64.167 47.1455 64.9326 47.1455C65.7393 47.1455 66.5368 46.9769 67.3252 46.6396V47.6514C66.9242 47.8245 66.5436 47.9476 66.1836 48.0205C65.8281 48.098 65.3975 48.1367 64.8916 48.1367ZM64.584 41.3213C63.9824 41.3213 63.5016 41.5173 63.1416 41.9092C62.7861 42.3011 62.5765 42.8434 62.5127 43.5361H66.4297C66.4297 42.8206 66.2702 42.2738 65.9512 41.8955C65.6322 41.5127 65.1764 41.3213 64.584 41.3213ZM73.0059 40.3711C73.3385 40.3711 73.637 40.3984 73.9014 40.4531L73.7441 41.5059C73.4342 41.4375 73.1608 41.4033 72.9238 41.4033C72.3177 41.4033 71.7982 41.6494 71.3652 42.1416C70.9368 42.6338 70.7227 43.2467 70.7227 43.9805V48H69.5879V40.5078H70.5244L70.6543 41.8955H70.709C70.987 41.4079 71.3219 41.0319 71.7139 40.7676C72.1058 40.5033 72.5365 40.3711 73.0059 40.3711ZM80.1357 45.9561C80.1357 46.6533 79.876 47.1911 79.3564 47.5693C78.8369 47.9476 78.1077 48.1367 77.1689 48.1367C76.1755 48.1367 75.4007 47.9795 74.8447 47.665V46.6123C75.2048 46.7946 75.5898 46.9382 76 47.043C76.4147 47.1478 76.8135 47.2002 77.1963 47.2002C77.7887 47.2002 78.2445 47.1068 78.5635 46.9199C78.8825 46.7285 79.042 46.4391 79.042 46.0518C79.042 45.7601 78.9144 45.5117 78.6592 45.3066C78.4085 45.097 77.9163 44.8509 77.1826 44.5684C76.4854 44.3086 75.9886 44.083 75.6924 43.8916C75.4007 43.6956 75.182 43.4746 75.0361 43.2285C74.8949 42.9824 74.8242 42.6885 74.8242 42.3467C74.8242 41.736 75.0726 41.2552 75.5693 40.9043C76.0661 40.5488 76.7474 40.3711 77.6133 40.3711C78.4199 40.3711 79.2083 40.5352 79.9785 40.8633L79.5752 41.7861C78.8232 41.4762 78.1419 41.3213 77.5312 41.3213C76.9935 41.3213 76.5879 41.4056 76.3145 41.5742C76.041 41.7428 75.9043 41.9753 75.9043 42.2715C75.9043 42.472 75.9544 42.6429 76.0547 42.7842C76.1595 42.9255 76.3258 43.0599 76.5537 43.1875C76.7816 43.3151 77.2191 43.4997 77.8662 43.7412C78.7549 44.0648 79.3542 44.3906 79.6641 44.7188C79.9785 45.0469 80.1357 45.4593 80.1357 45.9561ZM83.123 48H81.9883V40.5078H83.123V48ZM81.8926 38.4775C81.8926 38.2178 81.9564 38.0286 82.084 37.9102C82.2116 37.7871 82.3711 37.7256 82.5625 37.7256C82.7448 37.7256 82.902 37.7871 83.0342 37.9102C83.1663 38.0332 83.2324 38.2223 83.2324 38.4775C83.2324 38.7327 83.1663 38.9242 83.0342 39.0518C82.902 39.1748 82.7448 39.2363 82.5625 39.2363C82.3711 39.2363 82.2116 39.1748 82.084 39.0518C81.9564 38.9242 81.8926 38.7327 81.8926 38.4775ZM91.9961 44.2471C91.9961 45.4684 91.6885 46.4232 91.0732 47.1113C90.458 47.7949 89.6081 48.1367 88.5234 48.1367C87.8535 48.1367 87.2588 47.9795 86.7393 47.665C86.2197 47.3506 85.8187 46.8994 85.5361 46.3115C85.2536 45.7236 85.1123 45.0355 85.1123 44.2471C85.1123 43.0257 85.4176 42.0755 86.0283 41.3965C86.639 40.7129 87.4867 40.3711 88.5713 40.3711C89.6195 40.3711 90.4512 40.7197 91.0664 41.417C91.6862 42.1143 91.9961 43.0576 91.9961 44.2471ZM86.2881 44.2471C86.2881 45.2041 86.4795 45.9333 86.8623 46.4346C87.2451 46.9359 87.8079 47.1865 88.5508 47.1865C89.2936 47.1865 89.8564 46.9382 90.2393 46.4414C90.6266 45.9401 90.8203 45.2087 90.8203 44.2471C90.8203 43.2946 90.6266 42.5723 90.2393 42.0801C89.8564 41.5833 89.2891 41.335 88.5371 41.335C87.7943 41.335 87.2337 41.5788 86.8555 42.0664C86.4772 42.554 86.2881 43.2809 86.2881 44.2471ZM87.6006 39.3457C87.8193 39.0632 88.054 38.7214 88.3047 38.3203C88.5599 37.9193 88.7604 37.5706 88.9062 37.2744H90.2871V37.418C90.0866 37.7142 89.7881 38.0788 89.3916 38.5117C88.9951 38.9447 88.651 39.2796 88.3594 39.5166H87.6006V39.3457ZM99.1191 48V43.1533C99.1191 42.5426 98.9801 42.0869 98.7021 41.7861C98.4242 41.4854 97.9889 41.335 97.3965 41.335C96.6126 41.335 96.0384 41.5469 95.6738 41.9707C95.3092 42.3945 95.127 43.0941 95.127 44.0693V48H93.9922V40.5078H94.915L95.0996 41.5332H95.1543C95.3867 41.1641 95.7126 40.8792 96.1318 40.6787C96.5511 40.4736 97.0182 40.3711 97.5332 40.3711C98.4355 40.3711 99.1146 40.5898 99.5703 41.0273C100.026 41.4603 100.254 42.1553 100.254 43.1123V48H99.1191Z" fill="#58506B"/>
<path d="M262.831 44.9033C262.831 45.5641 262.59 46.1087 262.107 46.5371C261.624 46.9655 260.926 47.2298 260.015 47.3301V48.8135H259.106V47.3711C257.975 47.3529 257.048 47.1797 256.323 46.8516V45.4092C256.715 45.6006 257.173 45.7624 257.698 45.8945C258.222 46.0221 258.691 46.0882 259.106 46.0928V43.5361L258.531 43.3242C257.784 43.0371 257.237 42.6953 256.891 42.2988C256.549 41.8978 256.378 41.4033 256.378 40.8154C256.378 40.1865 256.622 39.6693 257.11 39.2637C257.602 38.8581 258.267 38.612 259.106 38.5254V37.377H260.015V38.5049C260.94 38.5368 261.817 38.7236 262.647 39.0654L262.148 40.3164C261.432 40.0339 260.721 39.8652 260.015 39.8105V42.2988L260.534 42.4971C261.4 42.8298 262 43.1807 262.332 43.5498C262.665 43.9189 262.831 44.3701 262.831 44.9033ZM261.218 45.0059C261.218 44.7415 261.125 44.5251 260.938 44.3564C260.755 44.1833 260.448 44.0169 260.015 43.8574V46.0381C260.817 45.915 261.218 45.571 261.218 45.0059ZM257.985 40.8018C257.985 41.0615 258.064 41.278 258.224 41.4512C258.388 41.6243 258.682 41.7952 259.106 41.9639V39.8379C258.741 39.8926 258.463 40.0042 258.272 40.1729C258.08 40.3415 257.985 40.5511 257.985 40.8018ZM268.755 48H267.148V41.5469C267.148 40.7767 267.167 40.166 267.203 39.7148C267.098 39.8242 266.968 39.945 266.813 40.0771C266.663 40.2093 266.153 40.6286 265.282 41.335L264.475 40.3164L267.415 38.0059H268.755V48ZM272.19 47.1455C272.19 46.8128 272.277 46.5576 272.45 46.3799C272.623 46.2021 272.874 46.1133 273.202 46.1133C273.534 46.1133 273.787 46.2067 273.96 46.3936C274.134 46.5758 274.22 46.8265 274.22 47.1455C274.22 47.4691 274.131 47.7266 273.954 47.918C273.78 48.1048 273.53 48.1982 273.202 48.1982C272.874 48.1982 272.623 48.1048 272.45 47.918C272.277 47.7311 272.19 47.4736 272.19 47.1455ZM275.639 43.7412C275.639 39.8311 277.232 37.876 280.417 37.876C280.918 37.876 281.342 37.9147 281.689 37.9922V39.332C281.342 39.2318 280.941 39.1816 280.486 39.1816C279.415 39.1816 278.61 39.4688 278.072 40.043C277.535 40.6172 277.243 41.5378 277.197 42.8047H277.279C277.494 42.4355 277.794 42.1507 278.182 41.9502C278.569 41.7451 279.025 41.6426 279.549 41.6426C280.456 41.6426 281.162 41.9206 281.668 42.4766C282.174 43.0326 282.427 43.7868 282.427 44.7393C282.427 45.7874 282.133 46.6169 281.545 47.2275C280.962 47.8337 280.164 48.1367 279.153 48.1367C278.437 48.1367 277.815 47.9658 277.286 47.624C276.758 47.2777 276.35 46.7764 276.063 46.1201C275.78 45.4593 275.639 44.6663 275.639 43.7412ZM279.125 46.8105C279.677 46.8105 280.1 46.6328 280.397 46.2773C280.697 45.9219 280.848 45.4137 280.848 44.7529C280.848 44.1787 280.707 43.7275 280.424 43.3994C280.146 43.0713 279.727 42.9072 279.166 42.9072C278.82 42.9072 278.501 42.9824 278.209 43.1328C277.917 43.2786 277.687 43.4814 277.519 43.7412C277.35 43.9964 277.266 44.2585 277.266 44.5273C277.266 45.1699 277.439 45.7122 277.785 46.1543C278.136 46.5918 278.583 46.8105 279.125 46.8105ZM290.244 43.0029C290.244 44.7393 289.964 46.029 289.403 46.8721C288.847 47.7152 287.995 48.1367 286.846 48.1367C285.735 48.1367 284.891 47.7015 284.317 46.8311C283.743 45.9606 283.456 44.6846 283.456 43.0029C283.456 41.2393 283.734 39.9404 284.29 39.1064C284.85 38.2679 285.703 37.8486 286.846 37.8486C287.963 37.8486 288.808 38.2861 289.383 39.1611C289.957 40.0361 290.244 41.3167 290.244 43.0029ZM285.083 43.0029C285.083 44.3656 285.222 45.3385 285.5 45.9219C285.782 46.5052 286.231 46.7969 286.846 46.7969C287.462 46.7969 287.911 46.5007 288.193 45.9082C288.48 45.3158 288.624 44.3473 288.624 43.0029C288.624 41.6631 288.48 40.6947 288.193 40.0977C287.911 39.4961 287.462 39.1953 286.846 39.1953C286.231 39.1953 285.782 39.4893 285.5 40.0771C285.222 40.665 285.083 41.6403 285.083 43.0029ZM298.102 43.0029C298.102 44.7393 297.822 46.029 297.261 46.8721C296.705 47.7152 295.853 48.1367 294.705 48.1367C293.593 48.1367 292.749 47.7015 292.175 46.8311C291.601 45.9606 291.314 44.6846 291.314 43.0029C291.314 41.2393 291.592 39.9404 292.148 39.1064C292.708 38.2679 293.561 37.8486 294.705 37.8486C295.821 37.8486 296.666 38.2861 297.241 39.1611C297.815 40.0361 298.102 41.3167 298.102 43.0029ZM292.941 43.0029C292.941 44.3656 293.08 45.3385 293.358 45.9219C293.64 46.5052 294.089 46.7969 294.705 46.7969C295.32 46.7969 295.769 46.5007 296.051 45.9082C296.338 45.3158 296.482 44.3473 296.482 43.0029C296.482 41.6631 296.338 40.6947 296.051 40.0977C295.769 39.4961 295.32 39.1953 294.705 39.1953C294.089 39.1953 293.64 39.4893 293.358 40.0771C293.08 40.665 292.941 41.6403 292.941 43.0029ZM299.48 47.1455C299.48 46.8128 299.566 46.5576 299.739 46.3799C299.913 46.2021 300.163 46.1133 300.491 46.1133C300.824 46.1133 301.077 46.2067 301.25 46.3936C301.423 46.5758 301.51 46.8265 301.51 47.1455C301.51 47.4691 301.421 47.7266 301.243 47.918C301.07 48.1048 300.819 48.1982 300.491 48.1982C300.163 48.1982 299.913 48.1048 299.739 47.918C299.566 47.7311 299.48 47.4736 299.48 47.1455ZM309.676 43.0029C309.676 44.7393 309.395 46.029 308.835 46.8721C308.279 47.7152 307.426 48.1367 306.278 48.1367C305.166 48.1367 304.323 47.7015 303.749 46.8311C303.175 45.9606 302.887 44.6846 302.887 43.0029C302.887 41.2393 303.165 39.9404 303.721 39.1064C304.282 38.2679 305.134 37.8486 306.278 37.8486C307.395 37.8486 308.24 38.2861 308.814 39.1611C309.388 40.0361 309.676 41.3167 309.676 43.0029ZM304.514 43.0029C304.514 44.3656 304.653 45.3385 304.931 45.9219C305.214 46.5052 305.663 46.7969 306.278 46.7969C306.893 46.7969 307.342 46.5007 307.625 45.9082C307.912 45.3158 308.055 44.3473 308.055 43.0029C308.055 41.6631 307.912 40.6947 307.625 40.0977C307.342 39.4961 306.893 39.1953 306.278 39.1953C305.663 39.1953 305.214 39.4893 304.931 40.0771C304.653 40.665 304.514 41.6403 304.514 43.0029ZM317.534 43.0029C317.534 44.7393 317.253 46.029 316.693 46.8721C316.137 47.7152 315.285 48.1367 314.136 48.1367C313.024 48.1367 312.181 47.7015 311.607 46.8311C311.033 45.9606 310.745 44.6846 310.745 43.0029C310.745 41.2393 311.023 39.9404 311.579 39.1064C312.14 38.2679 312.992 37.8486 314.136 37.8486C315.253 37.8486 316.098 38.2861 316.672 39.1611C317.246 40.0361 317.534 41.3167 317.534 43.0029ZM312.372 43.0029C312.372 44.3656 312.511 45.3385 312.789 45.9219C313.072 46.5052 313.521 46.7969 314.136 46.7969C314.751 46.7969 315.2 46.5007 315.483 45.9082C315.77 45.3158 315.913 44.3473 315.913 43.0029C315.913 41.6631 315.77 40.6947 315.483 40.0977C315.2 39.4961 314.751 39.1953 314.136 39.1953C313.521 39.1953 313.072 39.4893 312.789 40.0771C312.511 40.665 312.372 41.6403 312.372 43.0029ZM325.392 43.0029C325.392 44.7393 325.111 46.029 324.551 46.8721C323.995 47.7152 323.143 48.1367 321.994 48.1367C320.882 48.1367 320.039 47.7015 319.465 46.8311C318.891 45.9606 318.604 44.6846 318.604 43.0029C318.604 41.2393 318.882 39.9404 319.438 39.1064C319.998 38.2679 320.85 37.8486 321.994 37.8486C323.111 37.8486 323.956 38.2861 324.53 39.1611C325.104 40.0361 325.392 41.3167 325.392 43.0029ZM320.23 43.0029C320.23 44.3656 320.369 45.3385 320.647 45.9219C320.93 46.5052 321.379 46.7969 321.994 46.7969C322.609 46.7969 323.058 46.5007 323.341 45.9082C323.628 45.3158 323.771 44.3473 323.771 43.0029C323.771 41.6631 323.628 40.6947 323.341 40.0977C323.058 39.4961 322.609 39.1953 321.994 39.1953C321.379 39.1953 320.93 39.4893 320.647 40.0771C320.369 40.665 320.23 41.6403 320.23 43.0029Z" fill="#58506B"/>
<path d="M40 63H327" stroke="#FAF9FD"/>
<path d="M43.5361 84.8438V89H42.374V79.0059H45.1152C46.3411 79.0059 47.2458 79.2406 47.8291 79.71C48.417 80.1794 48.7109 80.8857 48.7109 81.8291C48.7109 83.1507 48.041 84.0439 46.7012 84.5088L49.415 89H48.041L45.6211 84.8438H43.5361ZM43.5361 83.8457H45.1289C45.9492 83.8457 46.5508 83.6839 46.9336 83.3604C47.3164 83.0322 47.5078 82.5423 47.5078 81.8906C47.5078 81.2298 47.3118 80.7536 46.9199 80.4619C46.5326 80.1702 45.9082 80.0244 45.0469 80.0244H43.5361V83.8457ZM54.0225 89.1367C52.915 89.1367 52.04 88.7995 51.3975 88.125C50.7594 87.4505 50.4404 86.514 50.4404 85.3154C50.4404 84.1077 50.7367 83.1484 51.3291 82.4375C51.9261 81.7266 52.7259 81.3711 53.7285 81.3711C54.6673 81.3711 55.4102 81.681 55.957 82.3008C56.5039 82.916 56.7773 83.7295 56.7773 84.7412V85.459H51.6162C51.639 86.3385 51.86 87.0062 52.2793 87.4619C52.7031 87.9176 53.2979 88.1455 54.0635 88.1455C54.8701 88.1455 55.6676 87.9769 56.4561 87.6396V88.6514C56.055 88.8245 55.6745 88.9476 55.3145 89.0205C54.959 89.098 54.5283 89.1367 54.0225 89.1367ZM53.7148 82.3213C53.1133 82.3213 52.6325 82.5173 52.2725 82.9092C51.917 83.3011 51.7074 83.8434 51.6436 84.5361H55.5605C55.5605 83.8206 55.401 83.2738 55.082 82.8955C54.763 82.5127 54.3073 82.3213 53.7148 82.3213ZM63.8457 89V84.1533C63.8457 83.5426 63.7067 83.0869 63.4287 82.7861C63.1507 82.4854 62.7155 82.335 62.123 82.335C61.3392 82.335 60.765 82.5469 60.4004 82.9707C60.0358 83.3945 59.8535 84.0941 59.8535 85.0693V89H58.7188V81.5078H59.6416L59.8262 82.5332H59.8809C60.1133 82.1641 60.4391 81.8792 60.8584 81.6787C61.2777 81.4736 61.7448 81.3711 62.2598 81.3711C63.1621 81.3711 63.8411 81.5898 64.2969 82.0273C64.7526 82.4603 64.9805 83.1553 64.9805 84.1123V89H63.8457ZM72.418 87.9951H72.3564C71.8324 88.7562 71.0485 89.1367 70.0049 89.1367C69.0251 89.1367 68.2617 88.8018 67.7148 88.1318C67.1725 87.4619 66.9014 86.5094 66.9014 85.2744C66.9014 84.0394 67.1748 83.0801 67.7217 82.3965C68.2686 81.7129 69.0296 81.3711 70.0049 81.3711C71.0212 81.3711 71.8005 81.7402 72.3428 82.4785H72.4316L72.3838 81.9385L72.3564 81.4121V78.3633H73.4912V89H72.5684L72.418 87.9951ZM70.1484 88.1865C70.9232 88.1865 71.4837 87.9769 71.8301 87.5576C72.181 87.1338 72.3564 86.4525 72.3564 85.5137V85.2744C72.3564 84.2126 72.1787 83.4561 71.8232 83.0049C71.4723 82.5492 70.9095 82.3213 70.1348 82.3213C69.4694 82.3213 68.959 82.5811 68.6035 83.1006C68.2526 83.6156 68.0771 84.3447 68.0771 85.2881C68.0771 86.2451 68.2526 86.9674 68.6035 87.4551C68.9544 87.9427 69.4694 88.1865 70.1484 88.1865ZM77.0391 89H75.9043V81.5078H77.0391V89ZM75.8086 79.4775C75.8086 79.2178 75.8724 79.0286 76 78.9102C76.1276 78.7871 76.2871 78.7256 76.4785 78.7256C76.6608 78.7256 76.818 78.7871 76.9502 78.9102C77.0824 79.0332 77.1484 79.2223 77.1484 79.4775C77.1484 79.7327 77.0824 79.9242 76.9502 80.0518C76.818 80.1748 76.6608 80.2363 76.4785 80.2363C76.2871 80.2363 76.1276 80.1748 76 80.0518C75.8724 79.9242 75.8086 79.7327 75.8086 79.4775ZM88.9951 89V84.126C88.9951 83.529 88.8675 83.0824 88.6123 82.7861C88.3571 82.4854 87.9606 82.335 87.4229 82.335C86.7165 82.335 86.1947 82.5378 85.8574 82.9434C85.5202 83.349 85.3516 83.9733 85.3516 84.8164V89H84.2168V84.126C84.2168 83.529 84.0892 83.0824 83.834 82.7861C83.5788 82.4854 83.18 82.335 82.6377 82.335C81.9268 82.335 81.4049 82.5492 81.0723 82.9775C80.7441 83.4014 80.5801 84.0986 80.5801 85.0693V89H79.4453V81.5078H80.3682L80.5527 82.5332H80.6074C80.8216 82.1686 81.1224 81.8838 81.5098 81.6787C81.9017 81.4736 82.3392 81.3711 82.8223 81.3711C83.9935 81.3711 84.7591 81.7949 85.1191 82.6426H85.1738C85.3971 82.2507 85.7207 81.9408 86.1445 81.7129C86.5684 81.485 87.0514 81.3711 87.5938 81.3711C88.4414 81.3711 89.0749 81.5898 89.4941 82.0273C89.918 82.4603 90.1299 83.1553 90.1299 84.1123V89H88.9951ZM93.6094 89H92.4746V81.5078H93.6094V89ZM92.3789 79.4775C92.3789 79.2178 92.4427 79.0286 92.5703 78.9102C92.6979 78.7871 92.8574 78.7256 93.0488 78.7256C93.2311 78.7256 93.3883 78.7871 93.5205 78.9102C93.6527 79.0332 93.7188 79.2223 93.7188 79.4775C93.7188 79.7327 93.6527 79.9242 93.5205 80.0518C93.3883 80.1748 93.2311 80.2363 93.0488 80.2363C92.8574 80.2363 92.6979 80.1748 92.5703 80.0518C92.4427 79.9242 92.3789 79.7327 92.3789 79.4775ZM99.1807 89.1367C98.0732 89.1367 97.1982 88.7995 96.5557 88.125C95.9176 87.4505 95.5986 86.514 95.5986 85.3154C95.5986 84.1077 95.8949 83.1484 96.4873 82.4375C97.0843 81.7266 97.8841 81.3711 98.8867 81.3711C99.8255 81.3711 100.568 81.681 101.115 82.3008C101.662 82.916 101.936 83.7295 101.936 84.7412V85.459H96.7744C96.7972 86.3385 97.0182 87.0062 97.4375 87.4619C97.8613 87.9176 98.4561 88.1455 99.2217 88.1455C100.028 88.1455 100.826 87.9769 101.614 87.6396V88.6514C101.213 88.8245 100.833 88.9476 100.473 89.0205C100.117 89.098 99.6865 89.1367 99.1807 89.1367ZM98.873 82.3213C98.2715 82.3213 97.7907 82.5173 97.4307 82.9092C97.0752 83.3011 96.8656 83.8434 96.8018 84.5361H100.719C100.719 83.8206 100.559 83.2738 100.24 82.8955C99.9212 82.5127 99.4655 82.3213 98.873 82.3213ZM109.004 89V84.1533C109.004 83.5426 108.865 83.0869 108.587 82.7861C108.309 82.4854 107.874 82.335 107.281 82.335C106.497 82.335 105.923 82.5469 105.559 82.9707C105.194 83.3945 105.012 84.0941 105.012 85.0693V89H103.877V81.5078H104.8L104.984 82.5332H105.039C105.271 82.1641 105.597 81.8792 106.017 81.6787C106.436 81.4736 106.903 81.3711 107.418 81.3711C108.32 81.3711 108.999 81.5898 109.455 82.0273C109.911 82.4603 110.139 83.1553 110.139 84.1123V89H109.004ZM114.896 88.2002C115.097 88.2002 115.291 88.1865 115.478 88.1592C115.664 88.1273 115.812 88.0954 115.922 88.0635V88.9316C115.799 88.9909 115.617 89.0387 115.375 89.0752C115.138 89.1162 114.924 89.1367 114.732 89.1367C113.283 89.1367 112.559 88.3734 112.559 86.8467V82.3896H111.485V81.8428L112.559 81.3711L113.037 79.7715H113.693V81.5078H115.867V82.3896H113.693V86.7988C113.693 87.25 113.8 87.5964 114.015 87.8379C114.229 88.0794 114.523 88.2002 114.896 88.2002ZM123.893 85.2471C123.893 86.4684 123.585 87.4232 122.97 88.1113C122.354 88.7949 121.505 89.1367 120.42 89.1367C119.75 89.1367 119.155 88.9795 118.636 88.665C118.116 88.3506 117.715 87.8994 117.433 87.3115C117.15 86.7236 117.009 86.0355 117.009 85.2471C117.009 84.0257 117.314 83.0755 117.925 82.3965C118.535 81.7129 119.383 81.3711 120.468 81.3711C121.516 81.3711 122.348 81.7197 122.963 82.417C123.583 83.1143 123.893 84.0576 123.893 85.2471ZM118.185 85.2471C118.185 86.2041 118.376 86.9333 118.759 87.4346C119.142 87.9359 119.704 88.1865 120.447 88.1865C121.19 88.1865 121.753 87.9382 122.136 87.4414C122.523 86.9401 122.717 86.2087 122.717 85.2471C122.717 84.2946 122.523 83.5723 122.136 83.0801C121.753 82.5833 121.186 82.335 120.434 82.335C119.691 82.335 119.13 82.5788 118.752 83.0664C118.374 83.554 118.185 84.2809 118.185 85.2471Z" fill="#58506B"/>
<path d="M271.117 85.9307V84.5635H274.63V85.9307H271.117ZM282.263 85.9033C282.263 86.5641 282.021 87.1087 281.538 87.5371C281.055 87.9655 280.358 88.2298 279.446 88.3301V89.8135H278.537V88.3711C277.407 88.3529 276.48 88.1797 275.755 87.8516V86.4092C276.147 86.6006 276.605 86.7624 277.129 86.8945C277.653 87.0221 278.123 87.0882 278.537 87.0928V84.5361L277.963 84.3242C277.216 84.0371 276.669 83.6953 276.322 83.2988C275.981 82.8978 275.81 82.4033 275.81 81.8154C275.81 81.1865 276.054 80.6693 276.541 80.2637C277.033 79.8581 277.699 79.612 278.537 79.5254V78.377H279.446V79.5049C280.372 79.5368 281.249 79.7236 282.078 80.0654L281.579 81.3164C280.864 81.0339 280.153 80.8652 279.446 80.8105V83.2988L279.966 83.4971C280.832 83.8298 281.431 84.1807 281.764 84.5498C282.097 84.9189 282.263 85.3701 282.263 85.9033ZM280.65 86.0059C280.65 85.7415 280.556 85.5251 280.369 85.3564C280.187 85.1833 279.879 85.0169 279.446 84.8574V87.0381C280.249 86.915 280.65 86.571 280.65 86.0059ZM277.416 81.8018C277.416 82.0615 277.496 82.278 277.655 82.4512C277.819 82.6243 278.113 82.7952 278.537 82.9639V80.8379C278.173 80.8926 277.895 81.0042 277.703 81.1729C277.512 81.3415 277.416 81.5511 277.416 81.8018ZM289.868 81.3027C289.868 81.9362 289.683 82.4648 289.314 82.8887C288.945 83.3079 288.426 83.5905 287.756 83.7363V83.791C288.558 83.8913 289.159 84.1419 289.56 84.543C289.961 84.9395 290.162 85.4681 290.162 86.1289C290.162 87.0905 289.822 87.8333 289.143 88.3574C288.464 88.877 287.498 89.1367 286.245 89.1367C285.137 89.1367 284.203 88.9567 283.442 88.5967V87.168C283.866 87.3776 284.315 87.5394 284.789 87.6533C285.263 87.7673 285.719 87.8242 286.156 87.8242C286.931 87.8242 287.51 87.6807 287.892 87.3936C288.275 87.1064 288.467 86.6621 288.467 86.0605C288.467 85.5273 288.255 85.1354 287.831 84.8848C287.407 84.6341 286.742 84.5088 285.835 84.5088H284.967V83.2031H285.848C287.443 83.2031 288.241 82.6517 288.241 81.5488C288.241 81.1204 288.102 80.79 287.824 80.5576C287.546 80.3252 287.136 80.209 286.594 80.209C286.215 80.209 285.851 80.2637 285.5 80.373C285.149 80.4779 284.734 80.6852 284.256 80.9951L283.47 79.874C284.386 79.1995 285.45 78.8623 286.662 78.8623C287.669 78.8623 288.455 79.0788 289.02 79.5117C289.585 79.9447 289.868 80.5417 289.868 81.3027ZM298.102 84.0029C298.102 85.7393 297.822 87.029 297.261 87.8721C296.705 88.7152 295.853 89.1367 294.705 89.1367C293.593 89.1367 292.749 88.7015 292.175 87.8311C291.601 86.9606 291.314 85.6846 291.314 84.0029C291.314 82.2393 291.592 80.9404 292.148 80.1064C292.708 79.2679 293.561 78.8486 294.705 78.8486C295.821 78.8486 296.666 79.2861 297.241 80.1611C297.815 81.0361 298.102 82.3167 298.102 84.0029ZM292.941 84.0029C292.941 85.3656 293.08 86.3385 293.358 86.9219C293.64 87.5052 294.089 87.7969 294.705 87.7969C295.32 87.7969 295.769 87.5007 296.051 86.9082C296.338 86.3158 296.482 85.3473 296.482 84.0029C296.482 82.6631 296.338 81.6947 296.051 81.0977C295.769 80.4961 295.32 80.1953 294.705 80.1953C294.089 80.1953 293.64 80.4893 293.358 81.0771C293.08 81.665 292.941 82.6403 292.941 84.0029ZM299.48 88.1455C299.48 87.8128 299.566 87.5576 299.739 87.3799C299.913 87.2021 300.163 87.1133 300.491 87.1133C300.824 87.1133 301.077 87.2067 301.25 87.3936C301.423 87.5758 301.51 87.8265 301.51 88.1455C301.51 88.4691 301.421 88.7266 301.243 88.918C301.07 89.1048 300.819 89.1982 300.491 89.1982C300.163 89.1982 299.913 89.1048 299.739 88.918C299.566 88.7311 299.48 88.4736 299.48 88.1455ZM309.676 84.0029C309.676 85.7393 309.395 87.029 308.835 87.8721C308.279 88.7152 307.426 89.1367 306.278 89.1367C305.166 89.1367 304.323 88.7015 303.749 87.8311C303.175 86.9606 302.887 85.6846 302.887 84.0029C302.887 82.2393 303.165 80.9404 303.721 80.1064C304.282 79.2679 305.134 78.8486 306.278 78.8486C307.395 78.8486 308.24 79.2861 308.814 80.1611C309.388 81.0361 309.676 82.3167 309.676 84.0029ZM304.514 84.0029C304.514 85.3656 304.653 86.3385 304.931 86.9219C305.214 87.5052 305.663 87.7969 306.278 87.7969C306.893 87.7969 307.342 87.5007 307.625 86.9082C307.912 86.3158 308.055 85.3473 308.055 84.0029C308.055 82.6631 307.912 81.6947 307.625 81.0977C307.342 80.4961 306.893 80.1953 306.278 80.1953C305.663 80.1953 305.214 80.4893 304.931 81.0771C304.653 81.665 304.514 82.6403 304.514 84.0029ZM317.534 84.0029C317.534 85.7393 317.253 87.029 316.693 87.8721C316.137 88.7152 315.285 89.1367 314.136 89.1367C313.024 89.1367 312.181 88.7015 311.607 87.8311C311.033 86.9606 310.745 85.6846 310.745 84.0029C310.745 82.2393 311.023 80.9404 311.579 80.1064C312.14 79.2679 312.992 78.8486 314.136 78.8486C315.253 78.8486 316.098 79.2861 316.672 80.1611C317.246 81.0361 317.534 82.3167 317.534 84.0029ZM312.372 84.0029C312.372 85.3656 312.511 86.3385 312.789 86.9219C313.072 87.5052 313.521 87.7969 314.136 87.7969C314.751 87.7969 315.2 87.5007 315.483 86.9082C315.77 86.3158 315.913 85.3473 315.913 84.0029C315.913 82.6631 315.77 81.6947 315.483 81.0977C315.2 80.4961 314.751 80.1953 314.136 80.1953C313.521 80.1953 313.072 80.4893 312.789 81.0771C312.511 81.665 312.372 82.6403 312.372 84.0029ZM325.392 84.0029C325.392 85.7393 325.111 87.029 324.551 87.8721C323.995 88.7152 323.143 89.1367 321.994 89.1367C320.882 89.1367 320.039 88.7015 319.465 87.8311C318.891 86.9606 318.604 85.6846 318.604 84.0029C318.604 82.2393 318.882 80.9404 319.438 80.1064C319.998 79.2679 320.85 78.8486 321.994 78.8486C323.111 78.8486 323.956 79.2861 324.53 80.1611C325.104 81.0361 325.392 82.3167 325.392 84.0029ZM320.23 84.0029C320.23 85.3656 320.369 86.3385 320.647 86.9219C320.93 87.5052 321.379 87.7969 321.994 87.7969C322.609 87.7969 323.058 87.5007 323.341 86.9082C323.628 86.3158 323.771 85.3473 323.771 84.0029C323.771 82.6631 323.628 81.6947 323.341 81.0977C323.058 80.4961 322.609 80.1953 321.994 80.1953C321.379 80.1953 320.93 80.4893 320.647 81.0771C320.369 81.665 320.23 82.6403 320.23 84.0029Z" fill="#58506B"/>
</g>
<defs>
<filter id="filter0_d" x="0" y="0" width="367" height="142" filterUnits="userSpaceOnUse" color-interpolation-filters="sRGB">
<feFlood flood-opacity="0" result="BackgroundImageFix"/>
<feColorMatrix in="SourceAlpha" type="matrix" values="0 0 0 0 0 0 0 0 0 0 0 0 0 0 0 0 0 0 127 0"/>
<feOffset dy="8"/>
<feGaussianBlur stdDeviation="10"/>
<feColorMatrix type="matrix" values="0 0 0 0 0.771758 0 0 0 0 0.651354 0 0 0 0 0.925 0 0 0 0.05 0"/>
<feBlend mode="normal" in2="BackgroundImageFix" result="effect1_dropShadow"/>
<feBlend mode="normal" in="SourceGraphic" in2="effect1_dropShadow" result="shape"/>
</filter>
</defs>
</svg>
